<?xml version="1.0" encoding="UTF-8" standalone="no"?>
<!-- Created with Inkscape (http://www.inkscape.org/) -->

<svg
   xmlns:dc="http://purl.org/dc/elements/1.1/"
   xmlns:cc="http://creativecommons.org/ns#"
   xmlns:rdf="http://www.w3.org/1999/02/22-rdf-syntax-ns#"
   xmlns:svg="http://www.w3.org/2000/svg"
   xmlns="http://www.w3.org/2000/svg"
   xmlns:xlink="http://www.w3.org/1999/xlink"
   xmlns:sodipodi="http://sodipodi.sourceforge.net/DTD/sodipodi-0.dtd"
   xmlns:inkscape="http://www.inkscape.org/namespaces/inkscape"
   version="1.0"
   width="128"
   height="128"
   id="svg3375"
   inkscape:version="0.91 r13725"
   sodipodi:docname="com.github.bitseater.weather.svg">
  <metadata
     id="metadata55">
    <rdf:RDF>
      <cc:Work
         rdf:about="">
        <dc:format>image/svg+xml</dc:format>
        <dc:type
           rdf:resource="http://purl.org/dc/dcmitype/StillImage" />
        <dc:title />
      </cc:Work>
    </rdf:RDF>
  </metadata>
  <sodipodi:namedview
     pagecolor="#ffffff"
     bordercolor="#666666"
     borderopacity="1"
     objecttolerance="10"
     gridtolerance="10"
     guidetolerance="10"
     inkscape:pageopacity="0"
     inkscape:pageshadow="2"
     inkscape:window-width="1920"
     inkscape:window-height="1017"
     id="namedview53"
     showgrid="false"
     inkscape:zoom="3.42"
     inkscape:cx="63.602339"
     inkscape:cy="8.9142626"
     inkscape:window-x="0"
     inkscape:window-y="30"
     inkscape:window-maximized="1"
     inkscape:current-layer="g4138" />
  <defs
     id="defs3377">
    <linearGradient
       id="linearGradient3702-501-757">
      <stop
         id="stop2895"
         style="stop-color:#181818;stop-opacity:0"
         offset="0" />
      <stop
         id="stop2897"
         style="stop-color:#181818;stop-opacity:1"
         offset="0.5" />
      <stop
         id="stop2899"
         style="stop-color:#181818;stop-opacity:0"
         offset="1" />
    </linearGradient>
    <linearGradient
       x1="25.058096"
       y1="47.027729"
       x2="25.058096"
       y2="39.999443"
       id="linearGradient2459"
       xlink:href="#linearGradient3702-501-757"
       gradientUnits="userSpaceOnUse" />
    <linearGradient
       id="linearGradient3688-464-309">
      <stop
         id="stop2889"
         style="stop-color:#181818;stop-opacity:1"
         offset="0" />
      <stop
         id="stop2891"
         style="stop-color:#181818;stop-opacity:0"
         offset="1" />
    </linearGradient>
    <radialGradient
       cx="4.9929786"
       cy="43.5"
       r="2.5"
       fx="4.9929786"
       fy="43.5"
       id="radialGradient2457"
       xlink:href="#linearGradient3688-464-309"
       gradientUnits="userSpaceOnUse"
       gradientTransform="matrix(2.003784,0,0,1.4,-20.01187,-104.4)" />
    <radialGradient
       cx="4.9929786"
       cy="43.5"
       r="2.5"
       fx="4.9929786"
       fy="43.5"
       id="radialGradient2455"
       xlink:href="#linearGradient3688-166-749"
       gradientUnits="userSpaceOnUse"
       gradientTransform="matrix(2.003784,0,0,1.4,27.98813,-17.4)" />
    <linearGradient
       id="linearGradient3707">
      <stop
         id="stop3709"
         style="stop-color:#4c2a4e;stop-opacity:1"
         offset="0" />
      <stop
         id="stop3711"
         style="stop-color:#a85394;stop-opacity:1"
         offset="1" />
    </linearGradient>
    <linearGradient
       x1="24"
       y1="44"
       x2="24"
       y2="3.8990016"
       id="linearGradient2566"
       xlink:href="#linearGradient3707"
       gradientUnits="userSpaceOnUse"
       gradientTransform="matrix(2.6410218,0,0,2.6410218,0.6154009,3.6155511)" />
    <linearGradient
       id="linearGradient3671">
      <stop
         id="stop3673"
         style="stop-color:#e384c6;stop-opacity:1"
         offset="0" />
      <stop
         id="stop3675"
         style="stop-color:#c467be;stop-opacity:1"
         offset="0.26238" />
      <stop
         id="stop3677"
         style="stop-color:#93399a;stop-opacity:1"
         offset="0.704952" />
      <stop
         id="stop3679"
         style="stop-color:#48274f;stop-opacity:1"
         offset="1" />
    </linearGradient>
    <radialGradient
       cx="12.011247"
       cy="13.194963"
       r="19.99999"
       fx="12.011247"
       fy="13.194963"
       id="radialGradient2564"
       xlink:href="#linearGradient3671"
       gradientUnits="userSpaceOnUse"
       gradientTransform="matrix(1.488003e-7,4.4371361,-6.4006035,2.7416064e-8,118.08383,-14.592113)" />
    <linearGradient
       id="linearGradient3688-166-749">
      <stop
         id="stop2883"
         style="stop-color:#181818;stop-opacity:1"
         offset="0" />
      <stop
         id="stop2885"
         style="stop-color:#181818;stop-opacity:0"
         offset="1" />
    </linearGradient>
    <linearGradient
       x1="17"
       y1="25"
       x2="17"
       y2="6"
       id="linearGradient3369"
       xlink:href="#linearGradient3688-166-749"
       gradientUnits="userSpaceOnUse"
       gradientTransform="matrix(2.6923075,0,0,2.6486488,-1.6153809,1.2837839)"
       spreadMethod="reflect" />
    <linearGradient
       id="linearGradient3308-4-6-931-761">
      <stop
         id="stop2919"
         style="stop-color:#ffffff;stop-opacity:1"
         offset="0" />
      <stop
         id="stop2921"
         style="stop-color:#ffffff;stop-opacity:0"
         offset="1" />
    </linearGradient>
    <linearGradient
       x1="23.99999"
       y1="4.999989"
       x2="23.99999"
       y2="43"
       id="linearGradient2470"
       xlink:href="#linearGradient3308-4-6-931-761"
       gradientUnits="userSpaceOnUse"
       gradientTransform="matrix(2.729731,0,0,2.7297289,-1.5135158,1.4865181)" />
    <linearGradient
       id="linearGradient3824">
      <stop
         id="stop3826"
         style="stop-color:#ffffff;stop-opacity:1"
         offset="0" />
      <stop
         id="stop3828"
         style="stop-color:#ffffff;stop-opacity:0"
         offset="1" />
    </linearGradient>
    <radialGradient
       cx="24"
       cy="9.488533"
       r="18.5"
       fx="24"
       fy="9.488533"
       id="radialGradient2572"
       xlink:href="#linearGradient3824"
       gradientUnits="userSpaceOnUse"
       gradientTransform="matrix(0,3.6636696,-10.951626,0,200.21087,-39.664557)" />
    <linearGradient
       id="linearGradient3924">
      <stop
         id="stop3926"
         style="stop-color:#ffffff;stop-opacity:1"
         offset="0" />
      <stop
         id="stop3928"
         style="stop-color:#ffffff;stop-opacity:0"
         offset="1" />
    </linearGradient>
    <linearGradient
       x1="17"
       y1="25"
       x2="17"
       y2="6"
       id="linearGradient3361"
       xlink:href="#linearGradient3924"
       gradientUnits="userSpaceOnUse"
       gradientTransform="matrix(2.6923075,0,0,2.6486488,-0.6153809,1.2837839)"
       spreadMethod="reflect" />
    <linearGradient
       id="linearGradient9165-5-1">
      <stop
         id="stop9167-7-12"
         style="stop-color:#acb9bf;stop-opacity:1"
         offset="0" />
      <stop
         id="stop9169-0-4"
         style="stop-color:#acb9bf;stop-opacity:0"
         offset="1" />
    </linearGradient>
    <linearGradient
       id="linearGradient9165-59">
      <stop
         id="stop9167-6"
         style="stop-color:#b6c5cc;stop-opacity:1"
         offset="0" />
      <stop
         id="stop9169-9"
         style="stop-color:#e5f0f6;stop-opacity:0"
         offset="1" />
    </linearGradient>
    <linearGradient
       id="linearGradient4747-3">
      <stop
         id="stop4749-7"
         style="stop-color:#ffffff;stop-opacity:1"
         offset="0" />
      <stop
         id="stop9072-8"
         style="stop-color:#f7f7f7;stop-opacity:1"
         offset="0.5" />
      <stop
         id="stop4751-3"
         style="stop-color:#dbe0e1;stop-opacity:1"
         offset="1" />
    </linearGradient>
    <radialGradient
       cx="680.5658"
       cy="365.6579"
       r="12.052631"
       fx="681.32629"
       fy="354.21619"
       id="radialGradient3030"
       xlink:href="#linearGradient9165-5-1"
       gradientUnits="userSpaceOnUse"
       gradientTransform="matrix(1.9849597,0,0,1.9712634,-1314.7319,-668.37231)" />
    <radialGradient
       cx="680.5658"
       cy="365.6579"
       r="12.052631"
       fx="680.60205"
       fy="355.25784"
       id="radialGradient3033"
       xlink:href="#linearGradient9165-59"
       gradientUnits="userSpaceOnUse"
       gradientTransform="matrix(2.6547671,0,0,2.6364491,-1732.0007,-917.86229)" />
    <radialGradient
       cx="676"
       cy="-233.5"
       r="29.5"
       fx="680.40613"
       fy="-249.59378"
       id="radialGradient3037"
       xlink:href="#linearGradient4747-3"
       gradientUnits="userSpaceOnUse"
       gradientTransform="matrix(3.3239744,7.7796619e-8,-6.3607663e-8,2.6908362,-2183.0066,696.31014)" />
    <linearGradient
       id="linearGradient4017-9-5">
      <stop
         id="stop4019-8-8"
         style="stop-color:#ffffff;stop-opacity:1"
         offset="0" />
      <stop
         id="stop4021-9-8"
         style="stop-color:#ffffff;stop-opacity:0.23529412"
         offset="0.49550432" />
      <stop
         id="stop4023-5-3"
         style="stop-color:#ffffff;stop-opacity:0.15686275"
         offset="0.88038814" />
      <stop
         id="stop4025-8-0"
         style="stop-color:#ffffff;stop-opacity:0.39215687"
         offset="1" />
    </linearGradient>
    <linearGradient
       xlink:href="#linearGradient4017-9-5"
       id="linearGradient3862"
       gradientUnits="userSpaceOnUse"
       gradientTransform="matrix(4.031746,0,0,4.0392156,-0.50793648,7.4117726)"
       x1="20.153708"
       y1="3.0216999"
       x2="20.153708"
       y2="26.666777" />
    <linearGradient
       id="linearGradient3811">
      <stop
         id="stop3813"
         style="stop-color:#000000;stop-opacity:1"
         offset="0" />
      <stop
         id="stop3815"
         style="stop-color:#000000;stop-opacity:0"
         offset="1" />
    </linearGradient>
    <radialGradient
       cx="4.9929786"
       cy="43.5"
       r="2.5"
       fx="4.9929786"
       fy="43.5"
       id="radialGradient4093-5"
       xlink:href="#linearGradient3688-464-309"
       gradientUnits="userSpaceOnUse"
       gradientTransform="matrix(2.003784,0,0,1.4,27.98813,-17.4)" />
    <radialGradient
       cx="4.9929786"
       cy="43.5"
       r="2.5"
       fx="4.9929786"
       fy="43.5"
       id="radialGradient4095-5"
       xlink:href="#linearGradient3688-464-309"
       gradientUnits="userSpaceOnUse"
       gradientTransform="matrix(2.003784,0,0,1.4,-20.01187,-104.4)" />
    <radialGradient
       cx="-4.0287771"
       cy="93.467628"
       r="35.338131"
       fx="-4.0287771"
       fy="93.467628"
       id="radialGradient4432"
       xlink:href="#linearGradient3811"
       gradientUnits="userSpaceOnUse"
       gradientTransform="matrix(1.3955634,0,0,0.16978827,69.62241,102.1321)" />
    <linearGradient
       xlink:href="#linearGradient3702-501-757"
       id="linearGradient4218"
       gradientUnits="userSpaceOnUse"
       x1="25.058096"
       y1="47.027729"
       x2="25.058096"
       y2="39.999443" />
  </defs>
  <g
     id="layer1">
    <g
       transform="matrix(2.9499988,0,0,1.2222234,-6.8000012,65.555537)"
       id="g2036"
       style="display:inline">
      <g
         transform="matrix(1.052632,0,0,1.285713,-1.263158,-13.42854)"
         id="g3712"
         style="opacity:0.4">
        <rect
           width="5"
           height="7"
           x="38"
           y="40"
           id="rect2801"
           style="fill:url(#radialGradient2455);fill-opacity:1;stroke:none" />
        <rect
           width="5"
           height="7"
           x="-10"
           y="-47"
           transform="scale(-1,-1)"
           id="rect3696"
           style="fill:url(#radialGradient2457);fill-opacity:1;stroke:none" />
        <rect
           width="28"
           height="7.0000005"
           x="10"
           y="40"
           id="rect3700"
           style="fill:url(#linearGradient2459);fill-opacity:1;stroke:none" />
      </g>
    </g>
    <rect
       width="103"
       height="103"
       rx="6"
       ry="6"
       x="12.5"
       y="15.5"
       id="rect5505"
       style="opacity:1;fill:url(#radialGradient2564);fill-opacity:1;fill-rule:nonzero;stroke:url(#linearGradient2566);stroke-width:1;stroke-linecap:round;stroke-linejoin:round;marker:none;marker-start:none;marker-mid:none;marker-end:none;stroke-miterlimit:4;stroke-dasharray:none;stroke-dashoffset:0;stroke-opacity:1;visibility:visible;display:inline;overflow:visible;enable-background:accumulate" />
    <rect
       width="101"
       height="100.99999"
       rx="5"
       ry="5"
       x="13.5"
       y="16.499998"
       id="rect6741"
       style="opacity:0.4;fill:none;stroke:url(#linearGradient2470);stroke-width:0.9999997;stroke-linecap:round;stroke-linejoin:round;stroke-miterlimit:4;stroke-dasharray:none;stroke-dashoffset:0;stroke-opacity:1" />
    <g
       id="g4182"
       transform="matrix(0.28139037,0,0,0.30298919,21.571326,21.589666)">
      <g
         id="g4138">
        <g
           id="g4362"
           transform="matrix(0.60747001,0,0,0.57857869,-9.2761174,4.848761)">
          <path
             id="path4312"
             d="m 372.364,274.178 0,-157.814 C 372.364,52.201 320.163,0 256,0 191.836,0 139.636,52.201 139.636,116.364 l 0,157.814 c -20.072,25.803 -31.03,57.574 -31.03,90.428 0,81.273 66.121,147.394 147.394,147.394 81.273,0 147.394,-66.121 147.394,-147.394 0,-32.855 -10.96,-64.625 -31.03,-90.428 z M 256,465.455 c -55.608,0 -100.848,-45.241 -100.848,-100.848 0,-24.556 8.954,-48.229 25.211,-66.659 3.75,-4.251 5.82,-9.726 5.82,-15.396 l 0,-166.188 c 0,-38.498 31.319,-69.818 69.818,-69.818 38.498,0 69.818,31.32 69.818,69.818 l 0,166.187 c 0,5.669 2.07,11.145 5.82,15.396 16.257,18.43 25.211,42.103 25.211,66.659 -0.002,55.608 -45.242,100.849 -100.85,100.849 z"
             style="fill:#9bc9ff"
             inkscape:connector-curvature="0" />
          <path
             id="path4314"
             d="m 331.638,297.947 c -3.75,-4.251 -5.82,-9.726 -5.82,-15.396 l 0,-166.187 c 0,-38.498 -31.32,-69.818 -69.818,-69.818 -38.499,0 -69.818,31.32 -69.818,69.818 l 0,166.187 c 0,5.669 -2.07,11.145 -5.82,15.396 -16.257,18.43 -25.211,42.103 -25.211,66.659 0,55.608 45.241,100.848 100.848,100.848 55.607,0 100.848,-45.241 100.848,-100.848 0.001,-24.556 -8.952,-48.229 -25.209,-66.659 z M 256,418.909 c -29.943,0 -54.303,-24.36 -54.303,-54.303 0,-21.619 12.701,-40.321 31.03,-49.053 l 0,-106.098 c 0,-12.853 10.42,-23.273 23.273,-23.273 12.853,0 23.273,10.42 23.273,23.273 l 0,106.099 c 18.328,8.732 31.03,27.435 31.03,49.053 0,29.942 -24.36,54.302 -54.303,54.302 z"
             style="fill:#bdfdff"
             inkscape:connector-curvature="0" />
          <path
             id="path4316"
             d="m 279.273,315.553 0,-106.098 c 0,-12.853 -10.42,-23.273 -23.273,-23.273 -12.853,0 -23.273,10.42 -23.273,23.273 l 0,106.099 c -18.33,8.732 -31.03,27.435 -31.03,49.053 0,29.943 24.36,54.303 54.303,54.303 29.943,0 54.303,-24.36 54.303,-54.303 0,-21.62 -12.702,-40.322 -31.03,-49.054 z"
             style="fill:#ff6243"
             inkscape:connector-curvature="0" />
          <path
             id="path4318"
             d="m 201.697,364.606 c 0,-21.619 12.701,-40.321 31.03,-49.053 l 0,-106.098 c 0,-12.853 10.42,-23.273 23.273,-23.273 l 0,-139.637 c -38.499,0 -69.818,31.32 -69.818,69.818 l 0,166.187 c 0,5.669 -2.07,11.145 -5.82,15.396 -16.258,18.43 -25.211,42.103 -25.211,66.659 0,55.608 45.241,100.848 100.848,100.848 l 0,-46.545 c -29.942,10e-4 -54.302,-24.359 -54.302,-54.302 z"
             style="fill:#9bc9ff"
             inkscape:connector-curvature="0" />
          <path
             id="path4320"
             d="m 232.727,209.455 0,106.099 c -18.33,8.732 -31.03,27.435 -31.03,49.053 0,29.943 24.36,54.303 54.303,54.303 l 0,-232.728 c -12.853,0 -23.273,10.42 -23.273,23.273 z"
             style="fill:#ff0c38"
             inkscape:connector-curvature="0" />
          <path
             id="path4322"
             d="m 256,512 0,-46.545 c -55.608,0 -100.848,-45.241 -100.848,-100.848 0,-24.556 8.952,-48.229 25.211,-66.659 3.75,-4.251 5.82,-9.726 5.82,-15.396 l 0,-166.188 c 0,-38.498 31.319,-69.818 69.818,-69.818 L 256.001,0 C 191.837,0 139.637,52.201 139.637,116.364 l 0,157.814 c -20.072,25.803 -31.03,57.574 -31.03,90.428 C 108.606,445.879 174.727,512 256,512 Z"
             style="fill:#8cb7e8"
             inkscape:connector-curvature="0" />
          <path
             id="path4324"
             d="m 256,512 0,-46.545 c -55.608,0 -100.848,-45.241 -100.848,-100.848 0,-24.556 8.952,-48.229 25.211,-66.659 3.75,-4.251 5.82,-9.726 5.82,-15.396 l 0,-166.188 c 0,-38.498 31.319,-69.818 69.818,-69.818 L 256.001,0 C 191.837,0 139.637,52.201 139.637,116.364 l 0,157.814 c -20.072,25.803 -31.03,57.574 -31.03,90.428 C 108.606,445.879 174.727,512 256,512 Z"
             style="fill:#57a4ff"
             inkscape:connector-curvature="0" />
          <g
             id="g4326" />
          <g
             id="g4328" />
          <g
             id="g4330" />
          <g
             id="g4332" />
          <g
             id="g4334" />
          <g
             id="g4336" />
          <g
             id="g4338" />
          <g
             id="g4340" />
          <g
             id="g4342" />
          <g
             id="g4344" />
          <g
             id="g4346" />
          <g
             id="g4348" />
          <g
             id="g4350" />
          <g
             id="g4352" />
          <g
             id="g4354" />
        </g>
      </g>
      <g
         id="g4146" />
      <g
         id="g4148" />
      <g
         id="g4150" />
      <g
         id="g4152" />
      <g
         id="g4154" />
      <g
         id="g4156" />
      <g
         id="g4158" />
      <g
         id="g4160" />
      <g
         id="g4162" />
      <g
         id="g4164" />
      <g
         id="g4166" />
      <g
         id="g4168" />
      <g
         id="g4170" />
      <g
         id="g4172" />
      <g
         id="g4174" />
    </g>
  </g>
</svg>
