<?xml version="1.0" encoding="UTF-8" standalone="no"?>
<!-- Created with Inkscape (http://www.inkscape.org/) -->

<svg
   xmlns:dc="http://purl.org/dc/elements/1.1/"
   xmlns:cc="http://creativecommons.org/ns#"
   xmlns:rdf="http://www.w3.org/1999/02/22-rdf-syntax-ns#"
   xmlns:svg="http://www.w3.org/2000/svg"
   xmlns="http://www.w3.org/2000/svg"
   xmlns:xlink="http://www.w3.org/1999/xlink"
   xmlns:sodipodi="http://sodipodi.sourceforge.net/DTD/sodipodi-0.dtd"
   xmlns:inkscape="http://www.inkscape.org/namespaces/inkscape"
   version="1.1"
   width="48"
   height="48"
   id="svg3658"
   inkscape:version="0.48.4 r9939"
   sodipodi:docname="eweather.svg">
  <sodipodi:namedview
     pagecolor="#ffffff"
     bordercolor="#666666"
     borderopacity="1"
     objecttolerance="10"
     gridtolerance="10"
     guidetolerance="10"
     inkscape:pageopacity="0"
     inkscape:pageshadow="2"
     inkscape:window-width="1920"
     inkscape:window-height="1025"
     id="namedview68"
     showgrid="false"
     inkscape:zoom="4.9166667"
     inkscape:cx="-8.4406778"
     inkscape:cy="24"
     inkscape:window-x="0"
     inkscape:window-y="30"
     inkscape:window-maximized="1"
     inkscape:current-layer="svg3658" />
  <defs
     id="defs3660">
    <linearGradient
       x1="16.626165"
       y1="15.298182"
       x2="20.054544"
       y2="24.627615"
       id="linearGradient3568"
       xlink:href="#linearGradient8265-821-176-38-919-66-249-7-7"
       gradientUnits="userSpaceOnUse"
       gradientTransform="matrix(0.82498024,0,0,1.3012336,4.1618797,-1.4329212)" />
    <linearGradient
       id="linearGradient8265-821-176-38-919-66-249-7-7">
      <stop
         id="stop2687-1-9"
         style="stop-color:#ffffff;stop-opacity:1"
         offset="0" />
      <stop
         id="stop2689-5-4"
         style="stop-color:#ffffff;stop-opacity:0"
         offset="1" />
    </linearGradient>
    <linearGradient
       x1="23.99999"
       y1="4.999989"
       x2="23.99999"
       y2="43"
       id="linearGradient2959"
       xlink:href="#linearGradient3924"
       gradientUnits="userSpaceOnUse"
       gradientTransform="translate(3.7e-6,1.00001)" />
    <linearGradient
       id="linearGradient3924">
      <stop
         id="stop3926"
         style="stop-color:#ffffff;stop-opacity:1"
         offset="0" />
      <stop
         id="stop3928"
         style="stop-color:#ffffff;stop-opacity:0.23529412"
         offset="0.06316455" />
      <stop
         id="stop3930"
         style="stop-color:#ffffff;stop-opacity:0.15686275"
         offset="0.95056331" />
      <stop
         id="stop3932"
         style="stop-color:#ffffff;stop-opacity:0.39215687"
         offset="1" />
    </linearGradient>
    <radialGradient
       cx="7.4956832"
       cy="8.4497671"
       r="19.99999"
       fx="7.4956832"
       fy="8.4497671"
       id="radialGradient2874"
       xlink:href="#linearGradient2867-449-88-871-390-598-476-591-434-148-57-177"
       gradientUnits="userSpaceOnUse"
       gradientTransform="matrix(1.9428467e-8,2.33699,-2.4722567,-4.3056275e-8,44.890104,-11.434799)" />
    <linearGradient
       id="linearGradient2867-449-88-871-390-598-476-591-434-148-57-177">
      <stop
         id="stop3750"
         style="stop-color:#90dbec;stop-opacity:1"
         offset="0" />
      <stop
         id="stop3752"
         style="stop-color:#55c1ec;stop-opacity:1"
         offset="0.26238" />
      <stop
         id="stop3754"
         style="stop-color:#3689e6;stop-opacity:1"
         offset="0.704952" />
      <stop
         id="stop3756"
         style="stop-color:#2b63a0;stop-opacity:1"
         offset="1" />
    </linearGradient>
    <linearGradient
       x1="24"
       y1="44"
       x2="24"
       y2="3.8990016"
       id="linearGradient2876"
       xlink:href="#linearGradient3707-319-631-407-324"
       gradientUnits="userSpaceOnUse"
       gradientTransform="translate(1.2e-6,1)" />
    <linearGradient
       id="linearGradient3707-319-631-407-324">
      <stop
         id="stop3760"
         style="stop-color:#185f9a;stop-opacity:1"
         offset="0" />
      <stop
         id="stop3762"
         style="stop-color:#599ec9;stop-opacity:1"
         offset="1" />
    </linearGradient>
    <radialGradient
       cx="4.9929786"
       cy="43.5"
       r="2.5"
       fx="4.9929786"
       fy="43.5"
       id="radialGradient3013"
       xlink:href="#linearGradient3688-166-749"
       gradientUnits="userSpaceOnUse"
       gradientTransform="matrix(2.003784,0,0,1.4,27.98813,-17.4)" />
    <linearGradient
       id="linearGradient3688-166-749">
      <stop
         id="stop2883"
         style="stop-color:#181818;stop-opacity:1"
         offset="0" />
      <stop
         id="stop2885"
         style="stop-color:#181818;stop-opacity:0"
         offset="1" />
    </linearGradient>
    <radialGradient
       cx="4.9929786"
       cy="43.5"
       r="2.5"
       fx="4.9929786"
       fy="43.5"
       id="radialGradient3015"
       xlink:href="#linearGradient3688-464-309"
       gradientUnits="userSpaceOnUse"
       gradientTransform="matrix(2.003784,0,0,1.4,-20.01187,-104.4)" />
    <linearGradient
       id="linearGradient3688-464-309">
      <stop
         id="stop2889"
         style="stop-color:#181818;stop-opacity:1"
         offset="0" />
      <stop
         id="stop2891"
         style="stop-color:#181818;stop-opacity:0"
         offset="1" />
    </linearGradient>
    <linearGradient
       id="linearGradient3702-501-757">
      <stop
         id="stop2895"
         style="stop-color:#181818;stop-opacity:0"
         offset="0" />
      <stop
         id="stop2897"
         style="stop-color:#181818;stop-opacity:1"
         offset="0.5" />
      <stop
         id="stop2899"
         style="stop-color:#181818;stop-opacity:0"
         offset="1" />
    </linearGradient>
    <linearGradient
       x1="25.058096"
       y1="47.027729"
       x2="25.058096"
       y2="39.999443"
       id="linearGradient3656"
       xlink:href="#linearGradient3702-501-757"
       gradientUnits="userSpaceOnUse" />
    <linearGradient
       x1="19.874987"
       y1="44.520065"
       x2="19.874987"
       y2="5.2502403"
       id="linearGradient3374-0"
       xlink:href="#linearGradient3707-319-631-407-1-846-9"
       gradientUnits="userSpaceOnUse" />
    <linearGradient
       id="linearGradient3707-319-631-407-1-846-9">
      <stop
         id="stop3788-1"
         style="stop-color:#365a7c;stop-opacity:1"
         offset="0" />
      <stop
         id="stop3790-7"
         style="stop-color:#5ea1ca;stop-opacity:1"
         offset="1" />
    </linearGradient>
    <linearGradient
       x1="19.874987"
       y1="44.520065"
       x2="19.874987"
       y2="5.2502403"
       id="linearGradient3372-1"
       xlink:href="#linearGradient3707-319-631-407-1-4-477-1"
       gradientUnits="userSpaceOnUse" />
    <linearGradient
       id="linearGradient3707-319-631-407-1-4-477-1">
      <stop
         id="stop3782-5"
         style="stop-color:#365a7c;stop-opacity:1"
         offset="0" />
      <stop
         id="stop3784-9"
         style="stop-color:#5ea1ca;stop-opacity:1"
         offset="1" />
    </linearGradient>
    <linearGradient
       x1="19.874987"
       y1="44.520065"
       x2="19.874987"
       y2="5.2502403"
       id="linearGradient3370-7"
       xlink:href="#linearGradient3707-319-631-407-1-9-274-7"
       gradientUnits="userSpaceOnUse" />
    <linearGradient
       id="linearGradient3707-319-631-407-1-9-274-7">
      <stop
         id="stop3776-6"
         style="stop-color:#365a7c;stop-opacity:1"
         offset="0" />
      <stop
         id="stop3778-7"
         style="stop-color:#5ea1ca;stop-opacity:1"
         offset="1" />
    </linearGradient>
    <linearGradient
       x1="19.874987"
       y1="44.520065"
       x2="19.874987"
       y2="5.2502403"
       id="linearGradient3041"
       xlink:href="#linearGradient3707-319-631-407-1-846-9"
       gradientUnits="userSpaceOnUse"
       gradientTransform="translate(-2.4867694e-7,-0.99957921)" />
    <linearGradient
       x1="19.874987"
       y1="44.520065"
       x2="19.874987"
       y2="5.2502403"
       id="linearGradient3044"
       xlink:href="#linearGradient3707-319-631-407-1-4-477-1"
       gradientUnits="userSpaceOnUse"
       gradientTransform="translate(-2.4867694e-7,-0.99957921)" />
    <linearGradient
       x1="19.874987"
       y1="44.520065"
       x2="19.874987"
       y2="5.2502403"
       id="linearGradient3047"
       xlink:href="#linearGradient3707-319-631-407-1-9-274-7"
       gradientUnits="userSpaceOnUse"
       gradientTransform="translate(-2.4867694e-7,-0.99957921)" />
    <linearGradient
       x1="16.626165"
       y1="15.298182"
       x2="20.054544"
       y2="24.627615"
       id="linearGradient3050"
       xlink:href="#linearGradient8265-821-176-38-919-66-249-7-7"
       gradientUnits="userSpaceOnUse"
       gradientTransform="matrix(0.82498024,0,0,1.3012336,4.1618797,-1.4329212)" />
    <linearGradient
       x1="23.99999"
       y1="4.999989"
       x2="23.99999"
       y2="43"
       id="linearGradient3053"
       xlink:href="#linearGradient3924"
       gradientUnits="userSpaceOnUse"
       gradientTransform="translate(3.7e-6,1.00001)" />
    <radialGradient
       cx="7.4956832"
       cy="8.4497671"
       r="19.99999"
       fx="7.4956832"
       fy="8.4497671"
       id="radialGradient3056"
       xlink:href="#linearGradient2867-449-88-871-390-598-476-591-434-148-57-177"
       gradientUnits="userSpaceOnUse"
       gradientTransform="matrix(1.9428467e-8,2.33699,-2.4722567,-4.3056275e-8,44.890104,-11.434799)" />
    <radialGradient
       inkscape:collect="always"
       xlink:href="#linearGradient5101"
       id="radialGradient1906"
       gradientUnits="userSpaceOnUse"
       cx="23.142857"
       cy="24.285715"
       fx="23.142857"
       fy="24.285715"
       r="23.142857" />
    <linearGradient
       id="linearGradient5101">
      <stop
         style="stop-color:white;stop-opacity:1;"
         offset="0"
         id="stop5103" />
      <stop
         style="stop-color:#edd400;stop-opacity:0.1262136;"
         offset="1"
         id="stop5105" />
    </linearGradient>
    <radialGradient
       inkscape:collect="always"
       xlink:href="#linearGradient5115"
       id="radialGradient1908"
       gradientUnits="userSpaceOnUse"
       gradientTransform="matrix(1,0,0,1.01674,0,-0.39987)"
       cx="21.895287"
       cy="23.886944"
       fx="21.895287"
       fy="23.886944"
       r="23.398855" />
    <linearGradient
       id="linearGradient5115">
      <stop
         style="stop-color:white;stop-opacity:0;"
         offset="0"
         id="stop5117" />
      <stop
         id="stop5123"
         offset="0.83783782"
         style="stop-color:#f6e97f;stop-opacity:0.35922331;" />
      <stop
         style="stop-color:#edd400;stop-opacity:1;"
         offset="1"
         id="stop5119" />
    </linearGradient>
    <radialGradient
       inkscape:collect="always"
       xlink:href="#linearGradient5125"
       id="radialGradient1929"
       gradientUnits="userSpaceOnUse"
       cx="23.071428"
       cy="23.142857"
       fx="23.071428"
       fy="23.142857"
       r="22.825405" />
    <linearGradient
       inkscape:collect="always"
       id="linearGradient5125">
      <stop
         style="stop-color:#ffc10f;stop-opacity:1;"
         offset="0"
         id="stop5127" />
      <stop
         style="stop-color:#ffc10f;stop-opacity:0;"
         offset="1"
         id="stop5129" />
    </linearGradient>
    <radialGradient
       inkscape:collect="always"
       xlink:href="#linearGradient5142"
       id="radialGradient1925"
       gradientUnits="userSpaceOnUse"
       gradientTransform="matrix(1.421498,0,0,1.421498,-9.724552,-9.754659)"
       cx="23.071423"
       cy="30.798319"
       fx="23.071423"
       fy="30.798319"
       r="22.856438" />
    <linearGradient
       id="linearGradient5142">
      <stop
         style="stop-color:#f1ff74;stop-opacity:1;"
         offset="0"
         id="stop5144" />
      <stop
         style="stop-color:#ffc10f;stop-opacity:1;"
         offset="1"
         id="stop5146" />
    </linearGradient>
    <linearGradient
       inkscape:collect="always"
       xlink:href="#linearGradient5134"
       id="linearGradient1927"
       gradientUnits="userSpaceOnUse"
       x1="20.908642"
       y1="52.221584"
       x2="15.422572"
       y2="-4.3302984" />
    <linearGradient
       id="linearGradient5134">
      <stop
         style="stop-color:#ffdf1a;stop-opacity:1;"
         offset="0"
         id="stop5136" />
      <stop
         style="stop-color:#fff9ce;stop-opacity:1;"
         offset="1"
         id="stop5138" />
    </linearGradient>
    <radialGradient
       inkscape:collect="always"
       xlink:href="#linearGradient5150"
       id="radialGradient1919"
       gradientUnits="userSpaceOnUse"
       gradientTransform="matrix(-1.636524e-8,-1.353395,2.022695,-2.607526e-8,-27.81932,50.0004)"
       cx="25.245258"
       cy="25.618958"
       fx="25.245258"
       fy="25.618958"
       r="14.760339" />
    <linearGradient
       inkscape:collect="always"
       id="linearGradient5150">
      <stop
         style="stop-color:white;stop-opacity:1;"
         offset="0"
         id="stop5152" />
      <stop
         style="stop-color:white;stop-opacity:0;"
         offset="1"
         id="stop5154" />
    </linearGradient>
    <radialGradient
       inkscape:collect="always"
       xlink:href="#linearGradient1994"
       id="radialGradient3088"
       cx="30.319067"
       cy="23.864922"
       fx="30.319067"
       fy="23.864922"
       r="16.5"
       gradientTransform="matrix(1.430283,0.00535634,-0.00204052,0.546399,-12.64539,12.08204)"
       gradientUnits="userSpaceOnUse" />
    <linearGradient
       id="linearGradient1994">
      <stop
         id="stop1997"
         offset="0"
         style="stop-color:white;stop-opacity:1" />
      <stop
         style="stop-color:white;stop-opacity:1;"
         offset="0.5"
         id="stop2001" />
      <stop
         id="stop1999"
         offset="1"
         style="stop-color:#d3d7cf;stop-opacity:1" />
    </linearGradient>
  </defs>
  <metadata
     id="metadata3663">
    <rdf:RDF>
      <cc:Work
         rdf:about="">
        <dc:format>image/svg+xml</dc:format>
        <dc:type
           rdf:resource="http://purl.org/dc/dcmitype/StillImage" />
        <dc:title />
      </cc:Work>
    </rdf:RDF>
  </metadata>
  <g
     transform="matrix(1.1578952,0,0,0.57142859,-3.789484,19.142856)"
     id="g3712"
     style="opacity:0.4">
    <rect
       width="5"
       height="7"
       x="38"
       y="40"
       id="rect2801"
       style="fill:url(#radialGradient3013);fill-opacity:1;stroke:none" />
    <rect
       width="5"
       height="7"
       x="-10"
       y="-47"
       transform="scale(-1,-1)"
       id="rect3696"
       style="fill:url(#radialGradient3015);fill-opacity:1;stroke:none" />
    <rect
       width="28"
       height="7.0000005"
       x="10"
       y="40"
       id="rect3700"
       style="fill:url(#linearGradient3656);fill-opacity:1;stroke:none" />
  </g>
  <rect
     width="39"
     height="39"
     rx="2"
     ry="2"
     x="4.5"
     y="5.5"
     id="rect5505-21"
     style="color:#000000;fill:url(#radialGradient3056);fill-opacity:1;fill-rule:nonzero;stroke:none;stroke-width:1;marker:none;visibility:visible;display:inline;overflow:visible;enable-background:accumulate" />
  <rect
     width="37"
     height="37"
     rx="1"
     ry="1"
     x="5.5"
     y="6.5"
     id="rect6741"
     style="opacity:0.5;fill:none;stroke:url(#linearGradient3053);stroke-width:1;stroke-linecap:round;stroke-linejoin:round;stroke-miterlimit:4;stroke-opacity:1;stroke-dasharray:none;stroke-dashoffset:0" />
  <path
     d="M 6.2169167,6 C 5.5377266,6 5,6.9124652 5,7.8 L 5.0126445,30 C 6.1058123,29.975834 42.170261,21.153092 43,20.728709 L 43,7.8 C 43,7.1215957 42.468817,6 41.88071,6 L 6.2169214,6 z"
     inkscape:connector-curvature="0"
     id="path3333"
     style="opacity:0.2;fill:url(#linearGradient3050);fill-opacity:1;fill-rule:evenodd;stroke:none" />
  <rect
     width="39"
     height="39"
     rx="2"
     ry="2"
     x="4.5"
     y="5.5"
     id="rect5505-21-8"
     style="opacity:0.3;color:#000000;fill:none;stroke:#000000;stroke-width:1;stroke-linecap:round;stroke-linejoin:round;stroke-miterlimit:4;stroke-opacity:1;stroke-dasharray:none;stroke-dashoffset:0;marker:none;visibility:visible;display:inline;overflow:visible;enable-background:accumulate" />
  <g
     id="g14918"
     transform="matrix(0.66921466,0,0,0.66921466,8.3456277,8.7524071)">
    <g
       id="g14136">
      <path
         sodipodi:type="arc"
         style="color:#000000;fill:url(#radialGradient1906);fill-opacity:1;fill-rule:evenodd;stroke:none;stroke-width:1;marker:none;visibility:visible;display:inline;overflow:visible"
         id="path4226"
         sodipodi:cx="23.142857"
         sodipodi:cy="24.285715"
         sodipodi:rx="23.142857"
         sodipodi:ry="23.142857"
         d="m 46.285713,24.285715 c 0,12.781447 -10.36141,23.142857 -23.142856,23.142857 C 10.36141,47.428572 0,37.067162 0,24.285715 0,11.504268 10.36141,1.1428585 23.142857,1.1428585 c 12.781446,0 23.142856,10.3614095 23.142856,23.1428565 z"
         transform="matrix(0.750039,0,0,0.75204,6.391761,5.314298)" />
      <path
         sodipodi:type="star"
         style="opacity:0.66292138;color:#000000;fill:url(#radialGradient1908);fill-opacity:1;fill-rule:evenodd;stroke:none;stroke-width:1;marker:none;visibility:visible;display:inline;overflow:visible"
         id="path5113"
         sodipodi:sides="11"
         sodipodi:cx="23.511301"
         sodipodi:cy="23.074486"
         sodipodi:r1="25.152658"
         sodipodi:r2="12.137954"
         sodipodi:arg1="0.52359878"
         sodipodi:arg2="0.80919811"
         inkscape:flatsided="false"
         inkscape:rounded="0"
         inkscape:randomized="0"
         d="M 45.294142,35.650815 31.887448,31.859136 35.036916,45.43106 25.808424,34.993091 21.120389,48.113251 19.000079,34.342973 7.9629591,42.845811 13.624016,30.11519 -0.25798184,31.301114 11.387095,23.652033 -0.9323434,17.144522 12.999525,17.005509 6.1539794,4.8706506 17.949369,12.285842 18.751129,-1.6236314 24.665087,10.991494 32.8596,-0.27643573 31.014486,13.53341 44.000052,8.4845125 34.981677,19.10455 48.63547,21.877674 35.307105,25.936117 z"
         transform="matrix(0.741704,-0.253089,0.252415,0.743682,0.700177,11.56434)" />
      <path
         sodipodi:type="arc"
         style="color:#000000;fill:url(#radialGradient1929);fill-opacity:1;fill-rule:evenodd;stroke:#ff9e1a;stroke-width:1.64021099;stroke-linecap:butt;stroke-linejoin:round;stroke-miterlimit:4;stroke-opacity:1;stroke-dasharray:none;stroke-dashoffset:0;marker:none;visibility:visible;display:inline;overflow:visible"
         id="path1314"
         sodipodi:cx="23.071428"
         sodipodi:cy="23.142857"
         sodipodi:rx="22.142857"
         sodipodi:ry="22.142857"
         d="m 45.214285,23.142857 c 0,12.229162 -9.913695,22.142856 -22.142857,22.142856 -12.229162,0 -22.1428563,-9.913694 -22.1428563,-22.142856 C 0.9285717,10.913695 10.842266,1 23.071428,1 35.30059,1 45.214285,10.913695 45.214285,23.142857 z"
         transform="matrix(0.609677,0,0,0.609677,9.93387,9.890323)" />
      <path
         sodipodi:type="arc"
         style="color:#000000;fill:url(#radialGradient1925);fill-opacity:1;fill-rule:evenodd;stroke:url(#linearGradient1927);stroke-width:1.77104032;stroke-linecap:butt;stroke-linejoin:round;stroke-miterlimit:4;stroke-opacity:1;stroke-dasharray:none;stroke-dashoffset:0;marker:none;visibility:visible;display:inline;overflow:visible"
         id="path2044"
         sodipodi:cx="23.071428"
         sodipodi:cy="23.142857"
         sodipodi:rx="22.142857"
         sodipodi:ry="22.142857"
         d="m 45.214285,23.142857 c 0,12.229162 -9.913695,22.142856 -22.142857,22.142856 -12.229162,0 -22.1428563,-9.913694 -22.1428563,-22.142856 C 0.9285717,10.913695 10.842266,1 23.071428,1 35.30059,1 45.214285,10.913695 45.214285,23.142857 z"
         transform="matrix(0.564516,0,0,0.564762,10.97581,10.93524)" />
      <path
         inkscape:connector-curvature="0"
         style="opacity:0.73033711;color:#000000;fill:url(#radialGradient1919);fill-opacity:1;fill-rule:evenodd;stroke:none;stroke-width:1;marker:none;visibility:visible;display:inline;overflow:visible"
         d="M 35.875,21.494252 C 30.902329,17.62271 8.9953842,31.195695 12.50345,20.470666 c 1.807317,-5.525424 6.912116,-8.43002 11.188508,-8.52988 5.479219,-0.127948 10.525484,3.487699 12.183042,9.553466 z"
         id="path2046"
         sodipodi:nodetypes="cssc" />
      <g
         id="g3098">
        <path
           inkscape:connector-curvature="0"
           sodipodi:nodetypes="csccccscscscssscscscscscscsssccsccsc"
           id="path3219"
           d="m 39,18.46875 c -0.826405,0 -1.5,0.698212 -1.5,1.53125 0,0.197846 0.05624,0.358064 0.125,0.53125 -1.598589,0.170386 -2.883461,1.406084 -3.09375,3 -1.222566,0.162087 -2.232599,0.944756 -2.71875,2.03125 -0.236388,0.03316 -0.462891,0.0912 -0.6875,0.15625 C 30.687793,24.990958 29.91027,24.5 29,24.5 c -1.261905,0 -2.299221,0.940798 -2.46875,2.15625 C 26.202337,26.568672 25.856372,26.5 25.5,26.5 c -1.30672,0 -2.457392,0.623703 -3.1875,1.59375 C 21.811275,27.71574 21.175693,27.5 20.5,27.5 c -1.056994,0 -1.967129,0.547171 -2.5,1.375 -0.264499,-0.237205 -0.618395,-0.40625 -1,-0.40625 -0.826405,0 -1.5,0.698212 -1.5,1.53125 0,0.833037 0.673594,1.5 1.5,1.5 0.232427,0 0.459913,-0.06084 0.65625,-0.15625 C 18.026664,32.576835 19.146791,33.5 20.5,33.5 c 0.677794,10e-7 1.310481,-0.244856 1.8125,-0.625 0.729196,0.980912 1.872215,1.625 3.1875,1.625 1.120181,0 2.117384,-0.475969 2.84375,-1.21875 C 29.24258,34.61133 30.774997,35.5 32.5,35.5 c 1.490289,10e-7 2.802456,-0.683355 3.71875,-1.71875 C 36.67125,34.23375 37.31,34.5 38,34.5 c 1.011116,-10e-7 1.88756,-0.604503 2.28125,-1.46875 C 40.787002,33.316797 41.378164,33.5 42,33.5 c 1.037532,0 1.954595,-0.467783 2.59375,-1.1875 0.272106,0.140979 0.579405,0.21875 0.90625,0.21875 1.097553,10e-7 2,-0.925434 2,-2.03125 10e-7,-1.105815 -0.902447,-2 -2,-2 -0.126885,0 -0.254699,0.03957 -0.375,0.0625 -0.363457,-0.78622 -0.98152,-1.411556 -1.78125,-1.75 C 43.433344,26.554504 43.5,26.288584 43.5,26 43.5,24.770719 42.60081,23.772017 41.4375,23.5625 41.312758,22.54936 40.764951,21.680113 39.96875,21.125 40.287361,20.848182 40.5,20.456946 40.5,20 40.5,19.166962 39.826406,18.46875 39,18.46875 z"
           style="fill:url(#radialGradient3088);fill-opacity:1;stroke:#729fcf;stroke-width:1;stroke-linecap:round;stroke-linejoin:miter;stroke-miterlimit:4;stroke-opacity:1;stroke-dasharray:none;stroke-dashoffset:1.20000057" />
        <path
           d="m 39,19.46875 c -0.267973,0 -0.5,0.232665 -0.5,0.53125 0,0.01 -0.02853,0.0057 0.03125,0.15625 a 0.99154039,0.99154039 0 0 1 -0.8125,1.375 c -1.151927,0.122778 -2.068268,0.9844 -2.21875,2.125 A 0.99154039,0.99154039 0 0 1 34.65625,24.5 c -0.880873,0.116786 -1.587945,0.687532 -1.9375,1.46875 a 0.99154039,0.99154039 0 0 1 -0.78125,0.5625 c -0.165038,0.02315 -0.326326,0.06565 -0.53125,0.125 a 0.99154039,0.99154039 0 0 1 -1.125,-0.4375 C 30.009886,25.767027 29.553778,25.5 29,25.5 c -0.769134,0 -1.397239,0.544494 -1.5,1.28125 A 0.99154039,0.99154039 0 0 1 26.28125,27.625 C 25.994853,27.548742 25.729006,27.5 25.5,27.5 c -0.991241,0 -1.854334,0.454205 -2.40625,1.1875 a 0.99154039,0.99154039 0 0 1 -1.375,0.1875 C 21.394432,28.630408 20.964657,28.5 20.5,28.5 c -0.714836,0 -1.293853,0.343256 -1.65625,0.90625 a 0.99154039,0.99154039 0 0 1 -1.5,0.21875 C 17.232196,29.524958 17.08881,29.46875 17,29.46875 c -0.267973,0 -0.5,0.232665 -0.5,0.53125 0,0.298584 0.207032,0.5 0.5,0.5 0.05941,0 0.144167,-0.02626 0.21875,-0.0625 a 0.99154039,0.99154039 0 0 1 1.375,0.625 C 18.84495,31.89873 19.597701,32.5 20.5,32.5 c 0.439017,10e-7 0.87299,-0.14443 1.21875,-0.40625 a 0.99154039,0.99154039 0 0 1 1.375,0.1875 C 23.65097,33.03082 24.508384,33.5 25.5,33.5 c 0.839336,0 1.567744,-0.336401 2.125,-0.90625 a 0.99154039,0.99154039 0 0 1 1.53125,0.125 C 29.877081,33.785429 31.115504,34.5 32.5,34.5 c 1.187212,10e-7 2.220292,-0.529256 2.96875,-1.375 a 0.99154039,0.99154039 0 0 1 1.4375,-0.03125 C 37.16638,33.35388 37.565045,33.5 38,33.5 c 0.615957,-10e-7 1.139125,-0.357196 1.375,-0.875 a 0.99154039,0.99154039 0 0 1 1.40625,-0.46875 C 41.157071,32.368438 41.572894,32.5 42,32.5 c 0.73953,0 1.375621,-0.316615 1.84375,-0.84375 A 0.99154039,0.99154039 0 0 1 45.0625,31.4375 c 0.133627,0.06923 0.267927,0.09375 0.4375,0.09375 0.540243,0 1,-0.464838 1,-1.03125 10e-7,-0.566409 -0.440937,-1 -1,-1 0.07927,0 0.01206,-0.0068 -0.1875,0.03125 a 0.99154039,0.99154039 0 0 1 -1.09375,-0.5625 c -0.267839,-0.579382 -0.685092,-1.010932 -1.25,-1.25 A 0.99154039,0.99154039 0 0 1 42.40625,26.5 C 42.476577,26.297486 42.5,26.135918 42.5,26 c 0,-0.745804 -0.539882,-1.340855 -1.25,-1.46875 A 0.99154039,0.99154039 0 0 1 40.46875,23.6875 c -0.09013,-0.731996 -0.489602,-1.350574 -1.0625,-1.75 A 0.99154039,0.99154039 0 0 1 39.3125,20.375 C 39.446844,20.258279 39.5,20.149369 39.5,20 39.5,19.701415 39.267975,19.46875 39,19.46875 z"
           id="path3094"
           style="fill:none;stroke:#ffffff;stroke-width:1;stroke-linecap:round;stroke-linejoin:miter;stroke-miterlimit:4;stroke-opacity:1;stroke-dasharray:none;stroke-dashoffset:1.20000057"
           inkscape:original="M 39 18.46875 C 38.173595 18.46875 37.5 19.166962 37.5 20 C 37.5 20.197846 37.556235 20.358064 37.625 20.53125 C 36.026411 20.701636 34.741539 21.937334 34.53125 23.53125 C 33.308684 23.693337 32.298651 24.476006 31.8125 25.5625 C 31.576112 25.595658 31.349609 25.653704 31.125 25.71875 C 30.687793 24.990958 29.91027 24.5 29 24.5 C 27.738095 24.5 26.700779 25.440798 26.53125 26.65625 C 26.202337 26.568672 25.856372 26.5 25.5 26.5 C 24.19328 26.5 23.042608 27.123703 22.3125 28.09375 C 21.811275 27.71574 21.175693 27.5 20.5 27.5 C 19.443006 27.5 18.532871 28.047171 18 28.875 C 17.735501 28.637795 17.381605 28.46875 17 28.46875 C 16.173595 28.46875 15.5 29.166962 15.5 30 C 15.5 30.833037 16.173594 31.5 17 31.5 C 17.232427 31.5 17.459913 31.43916 17.65625 31.34375 C 18.026664 32.576835 19.146791 33.5 20.5 33.5 C 21.177794 33.500001 21.810481 33.255144 22.3125 32.875 C 23.041696 33.855912 24.184715 34.5 25.5 34.5 C 26.620181 34.5 27.617384 34.024031 28.34375 33.28125 C 29.24258 34.61133 30.774997 35.5 32.5 35.5 C 33.990289 35.500001 35.302456 34.816645 36.21875 33.78125 C 36.67125 34.23375 37.31 34.5 38 34.5 C 39.011116 34.499999 39.88756 33.895497 40.28125 33.03125 C 40.787002 33.316797 41.378164 33.5 42 33.5 C 43.037532 33.5 43.954595 33.032217 44.59375 32.3125 C 44.865856 32.453479 45.173155 32.53125 45.5 32.53125 C 46.597553 32.531251 47.5 31.605816 47.5 30.5 C 47.500001 29.394185 46.597553 28.5 45.5 28.5 C 45.373115 28.5 45.245301 28.539575 45.125 28.5625 C 44.761543 27.77628 44.14348 27.150944 43.34375 26.8125 C 43.433344 26.554504 43.5 26.288584 43.5 26 C 43.5 24.770719 42.60081 23.772017 41.4375 23.5625 C 41.312758 22.54936 40.764951 21.680113 39.96875 21.125 C 40.287361 20.848182 40.5 20.456946 40.5 20 C 40.5 19.166962 39.826406 18.46875 39 18.46875 z "
           inkscape:radius="-0.99144125"
           sodipodi:type="inkscape:offset" />
      </g>
    </g>
    <rect
       y="0.5"
       x="0.5"
       height="47"
       width="47"
       id="rect14146"
       style="opacity:0;fill:#ffffff;fill-opacity:1;fill-rule:evenodd;stroke:#ffffff;stroke-width:1;stroke-linecap:round;stroke-linejoin:round;stroke-miterlimit:4;stroke-opacity:1;stroke-dasharray:none;stroke-dashoffset:1.4" />
  </g>
</svg>
